<svg xmlns="http://www.w3.org/2000/svg" width="682.667" height="682.667" preserveAspectRatio="xMidYMid meet" version="1.0" viewBox="0 0 512 512"><metadata>Created by potrace 1.11, written by Peter Selinger 2001-2013</metadata><g fill="#000" stroke="none"><path d="M3817 4786 c-62 -23 -109 -59 -259 -198 -359 -333 -728 -677 -783 -729 -33 -32 -69 -66 -81 -76 -11 -10 -423 -392 -916 -850 -731 -680 -900 -842 -923 -885 -40 -73 -47 -197 -16 -278 28 -73 28 -139 -1 -176 -12 -16 -61 -70 -108 -120 -66 -68 -89 -99 -94 -127 -11 -59 3 -105 50 -163 l43 -53 -279 -284 c-299 -305 -301 -307 -286 -395 7 -44 31 -79 76 -109 33 -23 35 -23 432 -23 346 0 403 2 430 16 17 9 74 58 127 109 l95 93 39 -35 c69 -62 134 -77 204 -48 20 8 77 55 127 104 50 49 101 94 113 100 33 17 92 13 153 -10 45 -17 71 -20 140 -17 155 7 39 -108 1473 1468 703 773 1296 1428 1317 1455 49 65 70 129 70 218 0 59 -5 83 -30 137 -28 59 -66 100 -418 447 -257 254 -404 391 -437 410 -41 22 -65 28 -135 30 -56 2 -98 -2 -123 -11z" transform="translate(0.000000,512.000000) scale(0.100000,-0.100000)"/></g></svg>